<svg width="36" height="36" viewBox="0 0 36 36" fill="none" xmlns="http://www.w3.org/2000/svg">
<path d="M29.6629 11.338C29.5907 10.4714 29.2296 9.67703 28.6519 9.0993C28.0742 8.52157 27.3159 8.16048 26.4132 8.16048H24.4994V6.4995C24.4994 4.69408 23.7773 3.06921 22.5857 1.91374C21.3941 0.722167 19.7693 0 17.9999 0C16.1945 0 14.5697 0.722167 13.4142 1.91374C12.2226 3.06921 11.5004 4.69408 11.5004 6.4995V8.16048H9.58671C8.684 8.16048 7.92573 8.52157 7.34799 9.0993C6.77026 9.67703 6.40918 10.4714 6.33696 11.338L4.42322 32.7141C4.42322 32.8225 4.42322 32.9308 4.42322 32.9669C4.42322 33.7613 4.74819 34.5196 5.32593 35.0612C5.86755 35.5667 6.58972 35.9278 7.34799 36H7.3841C7.49243 36 7.60075 36 7.67297 36H28.3269C28.3991 36 28.5075 36 28.6158 36C29.4102 35.9278 30.1323 35.5667 30.674 35.0612C31.2517 34.5196 31.5767 33.7613 31.5767 32.9308C31.5767 32.8586 31.5767 32.7864 31.5767 32.678L29.6629 11.338ZM13.4864 6.4995C13.4864 5.23571 13.9919 4.11635 14.8224 3.28586C15.6529 2.45537 16.7723 1.94985 18.0361 1.94985C19.2998 1.94985 20.4192 2.45537 21.2497 3.28586C22.0802 4.11635 22.5857 5.23571 22.5857 6.4995V8.16048H13.4864V6.4995ZM29.5546 32.9669C29.5546 33.2558 29.4463 33.5085 29.2296 33.6891C29.013 33.9057 28.688 34.0502 28.3991 34.0863C28.3991 34.0863 28.363 34.0863 28.2908 34.0863H7.67297C7.60075 34.0863 7.56464 34.0863 7.56464 34.0863H7.52853C7.20356 34.0502 6.91469 33.9057 6.69804 33.6891C6.48139 33.5085 6.37307 33.2558 6.37307 32.9669V32.8586L8.28681 11.5186C8.32292 11.1214 8.50346 10.7603 8.75622 10.5075C8.97287 10.2909 9.26173 10.1464 9.58671 10.1464H11.5004V14.5517C11.5004 15.0933 11.9337 15.5266 12.4754 15.5266C13.017 15.5266 13.4503 15.0933 13.4503 14.5517V10.1464H22.4774V14.5517C22.4774 15.0933 22.9107 15.5266 23.4523 15.5266C23.9939 15.5266 24.4272 15.0933 24.4272 14.5517V10.1464H26.341C26.6659 10.1464 26.9548 10.2909 27.1715 10.5075C27.4242 10.7603 27.6048 11.1214 27.6409 11.5186L29.5546 32.8947V32.9669Z" fill="white"/>
</svg>
