<svg xmlns="http://www.w3.org/2000/svg" width="40" height="40" viewBox="0 0 40 40">
    <g fill="#FFF" fill-rule="evenodd">
        <path d="M9.436 19.05l.93 14.016a1 1 0 0 0 .998.934h17.272a1 1 0 0 0 .998-.933l.932-13.98 1.79.177a1 1 0 0 0 1.08-.807l1.546-8.079a1 1 0 0 0-.6-1.112l-7.74-3.19a1 1 0 0 0-1.258.443C24.52 8.096 22.412 9.19 20 9.19c-2.412 0-4.52-1.094-5.384-2.67a1 1 0 0 0-1.258-.444L5.62 9.266a1 1 0 0 0-.601 1.112l1.545 8.079a1 1 0 0 0 1.102.805l1.77-.213zm23.429-8.246l-1.22 6.38-1.91-.189a1 1 0 0 0-1.096.929L27.7 32H12.3l-.938-14.136a1 1 0 0 0-1.117-.926l-1.893.227-1.216-6.361 6.223-2.565c1.4 1.819 3.9 2.951 6.641 2.951s5.242-1.132 6.641-2.951l6.224 2.565z"/>
        <path d="M15 14h10v12H15V14zm2 2v8h6v-8h-6z"/>
    </g>
</svg>
