<svg xmlns="http://www.w3.org/2000/svg" width="26" height="26" viewBox="0 0 26 26">
    <g fill="none" fill-rule="nonzero">
        <path fill="#1B8FD7" d="M24.4 17.94a12.071 12.071 0 0 1-4.651 5.996l-2.892-3.52a7.786 7.786 0 0 0 2.386-2.476z"/>
        <path fill="#19D5CB" d="M16.857 20.417l2.892 3.519A12.12 12.12 0 0 1 12.96 26v-4.409c1.43 0 2.765-.435 3.897-1.174z"/>
        <path fill="#FFDC58" d="M6.677 17.94a7.786 7.786 0 0 0 2.386 2.477l-2.89 3.52A12.074 12.074 0 0 1 1.52 17.94z"/>
        <path fill="#80C662" d="M9.064 20.417a7.101 7.101 0 0 0 3.896 1.174V26a12.12 12.12 0 0 1-6.788-2.064z"/>
        <path fill="#BB36FF" d="M24.92 0l-4.65 4.505-7.31-.001V0h11.96z"/>
        <path fill="#FF4236" d="M12.96 0v4.504H5.65v.015L1 0h11.96z"/>
        <path fill="#8129D5" d="M24.92 0v13.78h-4.65V4.508L24.92 0z"/>
        <path fill="#FFB03A" d="M1 0l4.65 4.51v9.27H1V0z"/>
    </g>
</svg>
