<svg width="30" height="30" viewBox="0 0 30 30" fill="none" xmlns="http://www.w3.org/2000/svg">
<path d="M29.4212 0.0711823C29.0712 -0.0725555 28.6674 0.00617981 28.3999 0.274887L25.025 3.64998C22.2425 1.35246 18.6724 0 15 0C6.72867 0 0 6.72867 0 15C0 23.2713 6.72867 30 15 30C19.0038 30 22.7701 28.4388 25.6036 25.6036C26.0925 25.115 26.0925 24.3251 25.6036 23.8362C25.115 23.3475 24.3251 23.3475 23.8362 23.8362C21.4751 26.1987 18.3362 27.4999 15 27.4999C8.10745 27.4999 2.50008 21.8925 2.50008 15C2.50008 8.10745 8.10745 2.50008 15 2.50008C18.0125 2.50008 20.9374 3.58383 23.2487 5.42496L20.275 8.39996C20.0063 8.66867 19.9276 9.07127 20.0713 9.42123C20.2162 9.77119 20.5575 10.0001 20.9374 10.0001H29.0625C29.58 10.0001 30 9.58008 30 9.06258V0.9375C30 0.557556 29.7713 0.216293 29.4212 0.0711823Z" fill="#CCCCCC"/>
</svg>
