<svg width="30" height="30" viewBox="0 0 30 30" fill="none" xmlns="http://www.w3.org/2000/svg">
<g clip-path="url(#clip0)">
<path d="M15.0009 -0.000231497C11.3285 -0.000231497 7.75843 1.35222 4.97593 3.64836L1.60108 0.27351C1.33238 0.00594829 0.929775 -0.07416 0.579816 0.0709504C0.229857 0.215832 0.000976562 0.557093 0.000976562 0.937264V9.06207C0.000976562 9.57957 0.420973 9.99957 0.938472 9.99957H9.06351C9.44345 9.99957 9.78471 9.77092 9.92982 9.42096C10.0747 9.071 9.99482 8.6684 9.72589 8.39969L6.75227 5.4247C9.06351 3.58335 11.9884 2.4996 15.0009 2.4996C21.8934 2.4996 27.501 8.10718 27.501 14.9997C27.501 21.892 21.8934 27.4996 15.0009 27.4996C11.6647 27.4996 8.5261 26.1984 6.16473 23.8359C5.67607 23.347 4.88598 23.347 4.39732 23.8359C3.90843 24.3245 3.90843 25.1146 4.39732 25.6033C7.23109 28.4382 10.9973 29.9996 15.0009 29.9996C23.2722 29.9996 30.0008 23.2708 30.0008 14.9997C30.0008 6.72841 23.2722 -0.000231497 15.0009 -0.000231497Z" fill="black"/>
</g>
<defs>
<clipPath id="clip0">
<rect width="30" height="30" fill="white"/>
</clipPath>
</defs>
</svg>
