<svg width="49" height="49" viewBox="0 0 49 49" fill="none" xmlns="http://www.w3.org/2000/svg">
<rect x="0.5" y="0.5" width="48" height="48" rx="2.5" fill="white" stroke="black"/>
<path d="M32.5994 19.8736C32.5492 19.2718 32.2985 18.7202 31.8973 18.319C31.496 17.9178 30.9695 17.667 30.3426 17.667H29.0136V16.5135C29.0136 15.2598 28.5121 14.1314 27.6846 13.329C26.8571 12.5015 25.7287 12 24.5001 12C23.2463 12 22.1179 12.5015 21.3155 13.329C20.488 14.1314 19.9865 15.2598 19.9865 16.5135V17.667H18.6575C18.0307 17.667 17.5041 17.9178 17.1029 18.319C16.7017 18.7202 16.4509 19.2718 16.4008 19.8736L15.0718 34.7182C15.0718 34.7934 15.0718 34.8686 15.0718 34.8937C15.0718 35.4453 15.2975 35.9719 15.6987 36.348C16.0748 36.6991 16.5763 36.9499 17.1029 37H17.1279C17.2032 37 17.2784 37 17.3285 37H31.6716C31.7217 37 31.797 37 31.8722 37C32.4238 36.9499 32.9253 36.6991 33.3015 36.348C33.7027 35.9719 33.9283 35.4453 33.9283 34.8686C33.9283 34.8185 33.9283 34.7683 33.9283 34.6931L32.5994 19.8736ZM21.3657 16.5135C21.3657 15.6359 21.7167 14.8586 22.2934 14.2818C22.8702 13.7051 23.6475 13.3541 24.5251 13.3541C25.4028 13.3541 26.1801 13.7051 26.7568 14.2818C27.3336 14.8586 27.6846 15.6359 27.6846 16.5135V17.667H21.3657V16.5135ZM32.5241 34.8937C32.5241 35.0943 32.4489 35.2698 32.2985 35.3952C32.148 35.5456 31.9223 35.6459 31.7217 35.671C31.7217 35.671 31.6966 35.671 31.6465 35.671H17.3285C17.2784 35.671 17.2533 35.671 17.2533 35.671H17.2282C17.0026 35.6459 16.802 35.5456 16.6515 35.3952C16.5011 35.2698 16.4258 35.0943 16.4258 34.8937V34.8185L17.7548 19.999C17.7799 19.7232 17.9053 19.4724 18.0808 19.2969C18.2313 19.1464 18.4319 19.0461 18.6575 19.0461H19.9865V22.1053C19.9865 22.4814 20.2874 22.7823 20.6636 22.7823C21.0397 22.7823 21.3406 22.4814 21.3406 22.1053V19.0461H27.6094V22.1053C27.6094 22.4814 27.9103 22.7823 28.2864 22.7823C28.6625 22.7823 28.9635 22.4814 28.9635 22.1053V19.0461H30.2924C30.5181 19.0461 30.7187 19.1464 30.8692 19.2969C31.0447 19.4724 31.1701 19.7232 31.1951 19.999L32.5241 34.8435V34.8937Z" fill="#202020"/>
</svg>
