<svg xmlns="http://www.w3.org/2000/svg" width="40" height="40" viewBox="0 0 40 40">
    <g fill="#FFF" fill-rule="evenodd">
        <path d="M20 35c6.45 0 11-4.716 11-11.365 0-2.934-1.673-6.65-4.472-10.862a64.404 64.404 0 0 0-3.084-4.238 53.969 53.969 0 0 0-1.568-1.907l-1.123-1.286a1 1 0 0 0-1.506 0l-1.12 1.284c-.325.37-.905 1.064-1.573 1.91a64.219 64.219 0 0 0-3.084 4.237C10.672 16.984 9 20.7 9 23.635 9 30.284 13.55 35 20 35zm.367-27.06c.376.435.866 1.023 1.508 1.835a62.432 62.432 0 0 1 2.987 4.105C27.456 17.782 29 21.213 29 23.635 29 29.195 25.33 33 20 33s-9-3.805-9-9.365c0-2.423 1.544-5.854 4.136-9.756a62.246 62.246 0 0 1 2.987-4.104 50.47 50.47 0 0 1 1.508-1.832L20 7.521l.367.42z"/>
        <path d="M24.153 21.229c.764 3.259-.113 5.576-2.684 7.186a1 1 0 1 0 1.062 1.695c3.316-2.077 4.524-5.267 3.57-9.338a1 1 0 0 0-1.948.457z"/>
    </g>
</svg>
