<svg width="50" height="50" viewBox="0 0 50 50" fill="none" xmlns="http://www.w3.org/2000/svg">
<g clip-path="url(#clip0)">
<path d="M27.0953 1.723C25.7251 -0.614291 24.2744 -0.533694 22.9043 1.723C16.6178 11.0721 7.10742 25.0959 7.10742 32.1077C7.10742 37.0241 9.12232 41.5375 12.3462 44.7613C15.57 47.9852 20.0834 50.0001 24.9998 50.0001C29.9161 50.0001 34.4295 47.9852 37.6533 44.7613C40.8772 41.5375 42.8921 37.0241 42.8921 32.1077C42.8921 25.0153 33.3817 11.0721 27.0953 1.723ZM37.8951 40.0867C36.6056 42.1822 34.7519 44.0359 32.4952 45.3255C31.4474 45.8897 30.1579 45.5673 29.5937 44.5195C28.949 43.3912 29.3519 42.1016 30.3997 41.5375C32.0116 40.6509 33.3011 39.3614 34.2683 37.8301C35.2355 36.2987 35.7996 34.5256 35.8802 32.6719C35.9608 31.463 36.928 30.5764 38.1369 30.657C39.3459 30.7376 40.2324 31.7047 40.1518 32.9137C39.9906 35.4928 39.1847 37.9106 37.8951 40.0867Z" fill="white"/>
</g>
<defs>
<clipPath id="clip0">
<rect width="50" height="50" fill="white"/>
</clipPath>
</defs>
</svg>
