<svg width="50" height="50" viewBox="0 0 50 50" fill="none" xmlns="http://www.w3.org/2000/svg">
<path d="M48.0469 0C46.695 0 3.10234 0 1.95312 0C0.874414 0 0 0.874414 0 1.95312V48.0469C0 49.1256 0.874414 50 1.95312 50H48.0469C49.1256 50 50 49.1256 50 48.0469C50 46.695 50 3.10234 50 1.95312C50 0.874414 49.1256 0 48.0469 0ZM3.90625 3.90625H11.5234V23.0469H3.90625V3.90625ZM23.0469 46.0938H3.90625V38.4766H23.0469V46.0938ZM23.0469 34.5703H3.90625V26.9531H23.0469V34.5703ZM23.0469 23.0469H15.4297V3.90625H23.0469V23.0469ZM34.5703 46.0938H26.9531C26.9531 45.0304 26.9531 28.0165 26.9531 26.9531H34.5703V46.0938ZM46.0938 46.0938H38.4766V26.9531H46.0938V46.0938ZM46.0938 23.0469C45.0304 23.0469 28.0165 23.0469 26.9531 23.0469V15.4297H46.0938V23.0469ZM46.0938 11.5234H26.9531V3.90625H46.0938V11.5234Z" fill="#CCCCCC"/>
</svg>
